<?xml version="1.0" encoding="UTF-8" standalone="no"?>
<!-- Created with Inkscape (http://www.inkscape.org/) -->

<svg
   xmlns:svg="http://www.w3.org/2000/svg"
   xmlns="http://www.w3.org/2000/svg"
   xmlns:xlink="http://www.w3.org/1999/xlink"
   version="1.1"
   width="48"
   height="48"
   id="GnomeSubtitles">
  <defs
     id="Defs">
    <linearGradient
       id="linearGradient7958">
      <stop
         id="Black"
         style="stop-color:#000000;stop-opacity:1"
         offset="0" />
      <stop
         id="TransparentBlack"
         style="stop-color:#000000;stop-opacity:0"
         offset="1" />
    </linearGradient>
    <linearGradient
       id="linearGradient8099">
      <stop
         id="White"
         style="stop-color:#ffffff;stop-opacity:1"
         offset="0" />
      <stop
         id="TransparentWhite"
         style="stop-color:#ffffff;stop-opacity:0"
         offset="1" />
    </linearGradient>
    <linearGradient
       x1="2.5179987"
       y1="10.959259"
       x2="2.5179987"
       y2="8.0052471"
       id="linearGradient7956"
       xlink:href="#linearGradient8099"
       gradientUnits="userSpaceOnUse" />
    <radialGradient
       cx="12.666883"
       cy="19.983101"
       r="8.0493984"
       fx="12.666883"
       fy="19.983101"
       id="radialGradient7964"
       xlink:href="#linearGradient7958"
       gradientUnits="userSpaceOnUse" />
  </defs>
  <g
     transform="translate(0,-1004.3622)"
     id="Icon">
    <path
       d="m 20.716282,19.983101 a 8.0493984,8.0493984 0 1 1 -16.098797,0 8.0493984,8.0493984 0 1 1 16.098797,0 z"
       transform="matrix(0.99386309,0,0,0.37269866,18.410852,1037.4145)"
       id="Shadow"
       style="opacity:0.3;fill:url(#radialGradient7964);fill-opacity:1;stroke:none" />
    <path
       d="m 8.5,1006.8622 c -3.324,0 -6,2.676 -6,6 l 0,17 c 0,3.324 2.676,6 6,6 l 24.875,0 0.0625,0.25 c 0,0 0.219498,4.5755 -2.9375,8.25 3.05349,-0.7246 7.949353,-3.6019 9.8125,-8.1562 l 0.1875,-0.4375 c 2.832064,-0.4839 5,-2.9321 5,-5.9063 l 0,-17 c 0,-3.324 -2.676,-6 -6,-6 l -31,0 z"
       id="Bubble"
       style="fill:#ffb200;fill-opacity:1;stroke:none" />
    <path
       d="m 44,8 c 0,0 -7.602655,4 -20,4 -12.122023,0 -20,4 -20,4 l 0,9.5 C 4,28.0189 5.9810542,30 8.5,30 l 24.875,0 c 0.664491,-0.0072 1.302607,0.481575 1.46875,1.125 l 0.0625,0.25 c 0.0213,0.102692 0.0318,0.207623 0.03125,0.3125 0,0 0.0079,2.2821 -0.9375,5 1.993489,-1.2973 3.99883,-3.11175 4.9375,-5.40625 -1.08e-4,-0.01042 -1.08e-4,-0.02083 0,-0.03125 l 0.1875,-0.4375 c 0.199487,-0.453069 0.636767,-0.793175 1.125,-0.875 C 42.379382,29.5737 44,27.7453 44,25.5 44.000002,19.75004 44,8 44,8 z m 0.28125,21.0625 c -0.193337,0.245581 -0.393464,0.474356 -0.625,0.6875 0.221379,-0.218419 0.437785,-0.43817 0.625,-0.6875 z m -0.625,0.6875 c -0.694608,0.639432 -1.562238,1.126012 -2.5,1.40625 L 40.5,31.34375 40.21875,32 c -0.109832,0.256305 -0.21939,0.505315 -0.34375,0.75 0.157581,-0.294697 0.310094,-0.594816 0.4375,-0.90625 L 40.5,31.40625 C 41.72972,31.196134 42.806773,30.588119 43.65625,29.75 z M 33.375,31.5 l 0.03125,0.09375 0,-0.09375 -0.03125,0 z m 5.5,2.84375 c -0.274719,0.375014 -0.56714,0.721746 -0.875,1.0625 0.308997,-0.337793 0.599622,-0.69178 0.875,-1.0625 z m -6.0625,1.4375 c -0.121286,0.384159 -0.26507,0.783563 -0.4375,1.1875 0.177779,-0.410246 0.320606,-0.807885 0.4375,-1.1875 z"
       transform="translate(0,1004.3622)"
       id="Reflection"
       style="opacity:0.25;fill:#ffffff;fill-opacity:1;stroke:none" />
    <path
       d="m 8.5,2.5 c -3.3126687,0 -6,2.6873 -6,6 l 0,17 c 0,3.3127 2.6873313,6 6,6 l 23.3125,0 1.59375,0 -0.09375,1.59375 c -0.08862,1.3814 -0.498569,4.1693 -2.8125,6.875 l 0,0.03125 0.03125,0 c 3.065742,-0.7365 7.763826,-3.5109 9.6875,-8 L 40.5,31.34375 41.15625,31.15625 C 43.656947,30.40895 45.5,28.2066 45.5,25.5 l 0,-17 c 0,-3.3127 -2.687332,-6 -6,-6 l -31,0 z m 0,1.5 31,0 C 42.018946,4 44,5.9811 44,8.5 l 0,17 c 0,2.2453 -1.620618,4.0737 -3.75,4.4375 a 1.50015,1.50015 0 0 0 -1.125,0.875 L 38.9375,31.25 a 1.50015,1.50015 0 0 0 0,0.03125 C 37.99883,33.57575 35.993489,35.3902 34,36.6875 c 0.945393,-2.7179 0.9375,-5 0.9375,-5 A 1.50015,1.50015 0 0 0 34.90625,31.375 l -0.0625,-0.25 A 1.50015,1.50015 0 0 0 33.375,30 L 8.5,30 C 5.9810542,30 4,28.0189 4,25.5 L 4,8.5 C 4,5.9811 5.9810542,4 8.5,4 z"
       transform="translate(0,1004.3622)"
       id="Highlight"
       style="font-size:medium;font-style:normal;font-variant:normal;font-weight:normal;font-stretch:normal;text-indent:0;text-align:start;text-decoration:none;line-height:normal;letter-spacing:normal;word-spacing:normal;text-transform:none;direction:ltr;block-progression:tb;writing-mode:lr-tb;text-anchor:start;opacity:0.6;color:#000000;fill:url(#linearGradient7956);fill-opacity:1;stroke:none;stroke-width:3;marker:none;visibility:visible;display:inline;overflow:visible;enable-background:accumulate;font-family:Bitstream Vera Sans;-inkscape-font-specification:Bitstream Vera Sans" />
    <path
       d="m 8.5,1006.3622 c -3.5923514,0 -6.5,2.9076 -6.5,6.5 l 0,17 c 0,3.5924 2.9076486,6.5 6.5,6.5 l 24.40625,0 c 0.01019,0.343 0.10845,4.3241 -2.78125,7.6875 a 0.50005,0.50005 0 0 0 0.5,0.8125 c 3.226,-0.7655 8.204822,-3.6986 10.15625,-8.4687 l 0.09375,-0.2188 c 2.918897,-0.6402 5.125,-3.2006 5.125,-6.3125 l 0,-17 c 0,-3.5924 -2.907649,-6.5 -6.5,-6.5 l -31,0 z m 0,1 31,0 c 3.055649,0 5.5,2.4444 5.5,5.5 l 0,17 c 0,2.7312 -1.995913,4.9624 -4.59375,5.4063 a 0.50005,0.50005 0 0 0 -0.375,0.3125 l -0.1875,0.4375 c -1.532959,3.7472 -5.262307,6.2567 -8.125,7.3437 2.267525,-3.5292 2.21875,-7.2812 2.21875,-7.2812 a 0.50005,0.50005 0 0 0 0,-0.094 l -0.0625,-0.25 a 0.50005,0.50005 0 0 0 -0.5,-0.375 l -24.875,0 c -3.0556486,0 -5.5,-2.4444 -5.5,-5.5 l 0,-17 c 0,-3.0556 2.4443514,-5.5 5.5,-5.5 z"
       id="Border"
       style="font-size:medium;font-style:normal;font-variant:normal;font-weight:normal;font-stretch:normal;text-indent:0;text-align:start;text-decoration:none;line-height:normal;letter-spacing:normal;word-spacing:normal;text-transform:none;direction:ltr;block-progression:tb;writing-mode:lr-tb;text-anchor:start;color:#000000;fill:#604400;fill-opacity:1;stroke:none;stroke-width:1;marker:none;visibility:visible;display:inline;overflow:visible;enable-background:accumulate;font-family:Bitstream Vera Sans;-inkscape-font-specification:Bitstream Vera Sans" />
    <path
       d="m 11,17 0,1 26,0 0,-1 -26,0 z m 0,3 0,1 26,0 0,-1 -26,0 z m 0,3 0,1 26,0 0,-1 -26,0 z m 7,3 0,1 12,0 0,-1 -12,0 z"
       transform="translate(0,1004.3622)"
       id="Subtitles"
       style="fill:#604400;fill-opacity:1;stroke:none" />
  </g>
</svg>
