<?xml version="1.0" encoding="UTF-8" standalone="no"?>
<!-- Created with Inkscape (http://www.inkscape.org/) -->
<svg
   xmlns:dc="http://purl.org/dc/elements/1.1/"
   xmlns:cc="http://web.resource.org/cc/"
   xmlns:rdf="http://www.w3.org/1999/02/22-rdf-syntax-ns#"
   xmlns:svg="http://www.w3.org/2000/svg"
   xmlns="http://www.w3.org/2000/svg"
   xmlns:xlink="http://www.w3.org/1999/xlink"
   xmlns:sodipodi="http://inkscape.sourceforge.net/DTD/sodipodi-0.dtd"
   xmlns:inkscape="http://www.inkscape.org/namespaces/inkscape"
   width="128"
   height="128"
   id="svg2632"
   sodipodi:version="0.32"
   inkscape:version="0.43"
   version="1.0"
   sodipodi:docbase="/home/sak/wip/gsubtitles/final"
   sodipodi:docname="logo.svg">
  <defs
     id="defs2634">
    <linearGradient
       id="linearGradient2518">
      <stop
         style="stop-color:#ffffff;stop-opacity:0;"
         offset="0"
         id="stop2520" />
      <stop
         id="stop2526"
         offset="0.5"
         style="stop-color:#ffffff;stop-opacity:1;" />
      <stop
         style="stop-color:#ffffff;stop-opacity:0;"
         offset="1"
         id="stop2522" />
    </linearGradient>
    <linearGradient
       inkscape:collect="always"
       xlink:href="#linearGradient2518"
       id="linearGradient3843"
       gradientUnits="userSpaceOnUse"
       gradientTransform="matrix(1,0,0,0.658641,-383.7071,-93.5038)"
       x1="420"
       y1="256.38318"
       x2="625"
       y2="256.38318" />
    <linearGradient
       inkscape:collect="always"
       id="linearGradient2404">
      <stop
         style="stop-color:#ffffff;stop-opacity:1;"
         offset="0"
         id="stop2406" />
      <stop
         style="stop-color:#ffffff;stop-opacity:0;"
         offset="1"
         id="stop2408" />
    </linearGradient>
    <linearGradient
       inkscape:collect="always"
       xlink:href="#linearGradient2404"
       id="linearGradient3775"
       gradientUnits="userSpaceOnUse"
       gradientTransform="translate(64.4596,28.2698)"
       x1="65.102867"
       y1="15.99996"
       x2="65.102867"
       y2="55.06274" />
    <linearGradient
       id="linearGradient3147">
      <stop
         id="stop3149"
         offset="0"
         style="stop-color:#ffd980;stop-opacity:1;" />
      <stop
         id="stop3151"
         offset="1"
         style="stop-color:#ffb200;stop-opacity:1;" />
    </linearGradient>
    <radialGradient
       inkscape:collect="always"
       xlink:href="#linearGradient3147"
       id="radialGradient3773"
       gradientUnits="userSpaceOnUse"
       gradientTransform="matrix(2.122569,4.341307e-16,1.280939e-14,0.710139,-8.62275,50.2292)"
       cx="65.102829"
       cy="76.848564"
       fx="65.102829"
       fy="76.848564"
       r="50.415974" />
    <linearGradient
       inkscape:collect="always"
       xlink:href="#linearGradient2518"
       id="linearGradient1583"
       gradientUnits="userSpaceOnUse"
       gradientTransform="matrix(1,0,0,0.658641,-383.7071,-93.5038)"
       x1="420"
       y1="256.38318"
       x2="625"
       y2="256.38318" />
    <radialGradient
       inkscape:collect="always"
       xlink:href="#linearGradient3147"
       id="radialGradient1585"
       gradientUnits="userSpaceOnUse"
       gradientTransform="matrix(2.122569,4.341307e-16,1.280939e-14,0.710139,-8.62275,50.2292)"
       cx="65.102829"
       cy="76.848564"
       fx="65.102829"
       fy="76.848564"
       r="50.415974" />
    <linearGradient
       inkscape:collect="always"
       xlink:href="#linearGradient2404"
       id="linearGradient1587"
       gradientUnits="userSpaceOnUse"
       gradientTransform="translate(64.4596,28.2698)"
       x1="65.102867"
       y1="15.99996"
       x2="65.102867"
       y2="55.06274" />
    <linearGradient
       inkscape:collect="always"
       xlink:href="#linearGradient2518"
       id="linearGradient1666"
       gradientUnits="userSpaceOnUse"
       gradientTransform="matrix(1,0,0,0.658641,-383.7071,-93.5038)"
       x1="420"
       y1="256.38318"
       x2="625"
       y2="256.38318" />
    <linearGradient
       inkscape:collect="always"
       xlink:href="#linearGradient2518"
       id="linearGradient1673"
       gradientUnits="userSpaceOnUse"
       gradientTransform="matrix(0.618357,0,0,0.407275,-266.9105,-25.70764)"
       x1="420"
       y1="256.38318"
       x2="625"
       y2="256.38318" />
    <linearGradient
       inkscape:collect="always"
       xlink:href="#linearGradient2518"
       id="linearGradient1698"
       gradientUnits="userSpaceOnUse"
       gradientTransform="matrix(0.618357,0,0,0.407275,-266.9105,-25.70764)"
       x1="420"
       y1="256.38318"
       x2="625"
       y2="256.38318" />
    <radialGradient
       inkscape:collect="always"
       xlink:href="#linearGradient3147"
       id="radialGradient1700"
       gradientUnits="userSpaceOnUse"
       gradientTransform="matrix(2.122569,4.341307e-16,1.280939e-14,0.710139,-8.62275,50.2292)"
       cx="65.102829"
       cy="76.848564"
       fx="65.102829"
       fy="76.848564"
       r="50.415974" />
    <linearGradient
       inkscape:collect="always"
       xlink:href="#linearGradient2404"
       id="linearGradient1702"
       gradientUnits="userSpaceOnUse"
       gradientTransform="translate(64.4596,28.2698)"
       x1="65.102867"
       y1="15.99996"
       x2="65.102867"
       y2="55.06274" />
  </defs>
  <sodipodi:namedview
     id="base"
     pagecolor="#ffffff"
     bordercolor="#666666"
     borderopacity="1.0"
     inkscape:pageopacity="0.0"
     inkscape:pageshadow="2"
     inkscape:zoom="3.265625"
     inkscape:cx="79.004785"
     inkscape:cy="63.69378"
     inkscape:current-layer="layer1"
     showgrid="true"
     inkscape:document-units="px"
     inkscape:grid-bbox="true"
     inkscape:grid-points="true"
     inkscape:guide-points="true"
     gridtolerance="0.5px"
     guidetolerance="0.5px"
     inkscape:window-width="872"
     inkscape:window-height="587"
     inkscape:window-x="391"
     inkscape:window-y="286" />
  <metadata
     id="metadata2637">
    <rdf:RDF>
      <cc:Work
         rdf:about="">
        <dc:format>image/svg+xml</dc:format>
        <dc:type
           rdf:resource="http://purl.org/dc/dcmitype/StillImage" />
      </cc:Work>
    </rdf:RDF>
  </metadata>
  <g
     id="layer1"
     inkscape:label="Layer 1"
     inkscape:groupmode="layer">
    <g
       id="g1678"
       transform="translate(8.000048,-4.259846)">
      <path
         id="path3735"
         d="M 119.9999,62.939048 C 76.655459,79.448245 10.842045,77.017007 -7.999995,73.686318 C -7.999995,78.293689 -7.999995,100.55589 -7.999995,103.62515 C 11.207401,107.02042 74.372627,110.25658 119.9999,92.877874 C 119.9999,89.807226 119.9999,65.242035 119.9999,62.939048 z M 117.9999,89.111531 C 117.9999,90.401926 117.9999,91.490539 117.9999,92.182178 L 118.07263,92.182178 C 115.65316,93.065603 113.22485,93.8767 110.76355,94.653096 C 110.76355,93.898587 110.76355,93.026257 110.76355,91.486487 C 113.20138,90.745055 115.60327,89.953816 117.9999,89.111531 z M 109.01809,92.014255 C 109.01809,93.340856 109.01809,94.430432 109.01809,95.132879 L 109.23628,95.132879 C 106.7654,95.888184 104.27505,96.593531 101.78174,97.24395 C 101.78174,96.476767 101.78174,95.567813 101.78174,93.981387 C 104.20026,93.372363 106.62049,92.717823 109.01809,92.014255 z M 100.03629,94.413198 C 100.03629,95.814333 100.03629,96.90373 100.03629,97.627783 L 100.2181,97.627783 C 97.758722,98.247803 95.30591,98.829355 92.836291,99.355021 C 92.836291,98.568396 92.836291,97.681617 92.836291,96.020493 C 95.242522,95.522172 97.639299,94.99472 100.03629,94.413198 z M 91.090836,96.356348 C 91.090836,97.882274 91.090836,98.934662 91.090836,99.690881 C 88.673907,100.18515 86.264189,100.64524 83.854476,101.05828 C 83.854476,100.27815 83.854476,99.332834 83.854476,97.699753 C 86.264374,97.295886 88.673722,96.837677 91.090836,96.356348 z M 82.072662,97.987623 C 82.075828,97.987852 82.105967,97.987574 82.109021,97.987623 C 82.109021,99.505949 82.109021,100.58967 82.109021,101.34615 C 79.682681,101.74397 77.275819,102.10269 74.872668,102.42568 C 74.872668,101.63997 74.872668,100.69789 74.872668,99.043165 C 77.264856,98.727215 79.657465,98.374844 82.072662,97.987623 z M 73.127213,99.25907 C 73.127213,100.83699 73.127213,101.89484 73.127213,102.66557 C 70.697181,102.97553 68.281953,103.24027 65.890859,103.48121 C 65.890859,102.68518 65.890859,101.77169 65.890859,100.07471 C 68.28238,99.835701 70.696761,99.564199 73.127213,99.25907 z M -5.6727219,99.570932 C -5.6727219,99.570932 -3.1613781,99.908048 1.3090858,100.31461 C 1.3090858,101.8896 1.3090858,102.69219 1.3090858,103.45722 C -3.1613781,103.01049 -5.6727219,102.64158 -5.6727219,102.64158 L -5.6727219,99.570932 z M 64.145404,100.24264 C 64.145404,101.86921 64.145404,102.86882 64.145404,103.64913 C 61.703513,103.88003 59.293559,104.08221 56.909044,104.24887 C 56.909044,103.4576 56.909044,102.51896 56.909044,100.84237 C 59.29359,100.67464 61.7035,100.47215 64.145404,100.24264 z M 3.0545394,100.45854 C 5.1454339,100.63603 7.5701446,100.81656 10.290901,100.98631 C 10.290901,102.48441 10.290901,103.45637 10.290901,104.20089 C 7.570737,104.0109 5.1450449,103.82076 3.0545394,103.62515 C 3.0545394,102.87319 3.0545394,101.98901 3.0545394,100.45854 z M 55.16359,100.96232 C 55.16359,102.58889 55.16359,103.5885 55.16359,104.36882 C 52.711266,104.5262 50.299365,104.65497 47.927236,104.75265 C 47.927236,103.95902 47.927236,103.0329 47.927236,101.34615 C 50.299365,101.24443 52.711266,101.12143 55.16359,100.96232 z M 12.036355,101.08226 C 14.280248,101.21095 16.695889,101.32236 19.27271,101.41812 C 19.27271,102.93126 19.27271,103.95379 19.27271,104.70467 C 16.695889,104.59314 14.280248,104.46564 12.036355,104.32084 C 12.036355,103.58091 12.036355,102.5553 12.036355,101.08226 z M 45.745419,101.41812 C 45.890003,101.41284 46.03685,101.42359 46.181781,101.41812 C 46.181781,103.07454 46.181781,104.03789 46.181781,104.82462 C 43.717758,104.91271 41.299877,104.98392 38.945427,105.01653 C 38.945427,104.22526 38.945427,103.28661 38.945427,101.61003 C 41.161204,101.5723 43.432133,101.50249 45.745419,101.41812 z M 21.018163,101.49008 C 23.317866,101.56453 25.740582,101.62625 28.254519,101.65801 C 28.254519,103.1856 28.254519,104.25838 28.254519,105.01653 C 25.740385,104.97278 23.318033,104.88859 21.018163,104.80062 C 21.018163,104.0516 21.018163,102.98672 21.018163,101.49008 z M 35.490883,101.63402 C 35.758143,101.63145 36.022274,101.63679 36.290883,101.63402 C 36.597847,101.63086 36.89072,101.63776 37.199972,101.63402 C 37.199972,103.3005 37.199972,104.25155 37.199972,105.04052 C 34.726019,105.06193 32.324605,105.04513 29.999973,105.01653 C 29.999973,104.25838 29.999973,103.1856 29.999973,101.65801 C 31.77977,101.67187 33.620056,101.65201 35.490883,101.63402 z "
         style="fill:#000000;fill-opacity:1;fill-rule:evenodd;stroke:none;stroke-width:1;stroke-linecap:butt;stroke-linejoin:miter;stroke-miterlimit:4;stroke-dasharray:none;stroke-dashoffset:0;stroke-opacity:1" />
      <path
         id="path3737"
         d="M 119.9999,51.280179 C 76.655459,67.789375 10.842045,65.358137 -7.999995,62.027452 C -7.999995,66.634819 -7.999995,88.897023 -7.999995,91.966274 C 11.207401,95.361548 74.372627,98.597694 119.9999,81.219004 C 119.9999,78.148356 119.9999,53.583165 119.9999,51.280179 z M 118.18172,53.43923 C 118.18172,54.694102 118.18172,55.781067 118.18172,56.461901 L 118.29081,56.461901 C 115.89216,57.277495 113.45647,58.044659 111.0181,58.764888 C 111.0181,58.014556 111.0181,57.214692 111.0181,55.694236 C 113.41895,54.985088 115.81909,54.240899 118.18172,53.43923 z M 109.27264,56.198015 C 109.27264,57.536411 109.27264,58.567107 109.27264,59.268663 C 106.87271,59.953106 104.45796,60.594324 102.03628,61.187822 C 102.03628,60.445799 102.03628,59.610274 102.03628,58.11717 C 104.45796,57.523676 106.87271,56.882453 109.27264,56.198015 z M 100.29083,58.524991 C 100.29083,59.871565 100.29083,60.892254 100.29083,61.595639 C 97.885955,62.163718 95.468575,62.691217 93.054472,63.178942 C 93.054472,62.439594 93.054472,61.592384 93.054472,60.108293 C 95.468575,59.620569 97.885955,59.09307 100.29083,58.524991 z M 91.309017,60.444145 C 91.309017,61.80721 91.309017,62.807608 91.309017,63.514797 C 88.909495,63.981103 86.502776,64.416647 84.109023,64.810226 C 84.109023,64.057027 84.109023,63.269243 84.109023,61.739578 C 86.502776,61.345995 88.909495,60.910455 91.309017,60.444145 z M 82.290843,62.027452 C 82.303105,62.027664 82.351306,62.027236 82.363568,62.027452 C 82.363568,63.449812 82.363568,64.376042 82.363568,65.0981 C 79.939652,65.480279 77.528666,65.815694 75.127214,66.129647 C 75.127214,65.387624 75.127214,64.552099 75.127214,63.058995 C 77.506881,62.747894 79.889064,62.405525 82.290843,62.027452 z M 73.38176,63.2749 C 73.38176,64.688642 73.38176,65.625766 73.38176,66.345552 C 70.948234,66.648683 68.540302,66.921398 66.1454,67.16119 C 66.1454,66.429548 66.1454,65.547878 66.1454,64.090541 C 68.540302,63.850746 70.948234,63.578035 73.38176,63.2749 z M -5.6727219,63.946607 C -5.6727219,63.946607 -3.0674039,64.266867 1.5636337,64.642298 C 1.5636337,66.162754 1.5636337,66.962619 1.5636337,67.71295 C -3.0674039,67.337516 -5.6727219,67.017254 -5.6727219,67.017254 L -5.6727219,63.946607 z M 64.399945,64.258469 C 64.399945,65.655122 64.399945,66.613734 64.399945,67.329117 C 61.955128,67.56023 59.551111,67.756703 57.163591,67.928855 C 57.163591,67.2021 57.163591,66.297954 57.163591,64.858203 C 59.551111,64.686056 61.955128,64.489582 64.399945,64.258469 z M 3.3090873,64.786237 C 5.4083531,64.94452 7.830267,65.095335 10.545443,65.242035 C 10.545443,66.681786 10.545443,67.585929 10.545443,68.312683 C 7.830267,68.165982 5.4083531,68.015169 3.3090873,67.856885 C 3.3090873,67.122722 3.3090873,66.25244 3.3090873,64.786237 z M 55.418136,64.978153 C 55.418136,66.374806 55.418136,67.333414 55.418136,68.048801 C 52.962109,68.21321 50.557863,68.347082 48.181776,68.456622 C 48.181776,67.743361 48.181776,66.774151 48.181776,65.38597 C 50.557863,65.276433 52.962109,65.142562 55.418136,64.978153 z M 12.290897,65.337993 C 14.539623,65.448691 16.949628,65.548546 19.527258,65.625867 C 19.527258,67.065618 19.527258,67.969761 19.527258,68.696515 C 16.949628,68.619198 14.539623,68.519339 12.290897,68.408641 C 12.290897,67.691083 12.290897,66.743166 12.290897,65.337993 z M 46.436328,65.45794 C 46.436328,66.821001 46.436328,67.821403 46.436328,68.528588 C 43.967939,68.630297 41.559494,68.717832 39.199968,68.768485 C 39.199968,68.048699 39.199968,67.111575 39.199968,65.697833 C 41.559494,65.647184 43.967939,65.559649 46.436328,65.45794 z M 21.272711,65.673845 C 23.562153,65.732211 25.973436,65.776698 28.472705,65.793791 C 28.472705,67.242311 28.472705,68.13527 28.472705,68.864443 C 25.973436,68.847346 23.562153,68.802859 21.272711,68.744492 C 21.272711,68.022438 21.272711,67.096209 21.272711,65.673845 z M 35.23633,65.745815 C 35.480111,65.742597 35.718605,65.749101 35.963611,65.745815 C 36.243615,65.742059 36.518209,65.75005 36.79997,65.745815 C 37.016908,65.742552 37.236505,65.749468 37.454513,65.745815 C 37.454513,67.142467 37.454513,68.101079 37.454513,68.816462 C 34.971222,68.85811 32.55229,68.869677 30.218158,68.864443 C 30.218158,68.13527 30.218158,67.242311 30.218158,65.793791 C 31.848339,65.797449 33.529863,65.7683 35.23633,65.745815 z "
         style="fill:#000000;fill-opacity:1;fill-rule:evenodd;stroke:none;stroke-width:1;stroke-linecap:butt;stroke-linejoin:miter;stroke-miterlimit:4;stroke-dasharray:none;stroke-dashoffset:0;stroke-opacity:1" />
      <path
         sodipodi:nodetypes="ccccc"
         id="path3739"
         d="M -7.381638,67.783519 C 11.278354,71.114208 76.45589,73.545445 119.38155,57.036249 C 119.38155,59.339236 119.38155,83.904427 119.38155,86.975075 C 74.195115,104.35376 11.64018,101.11762 -7.381638,97.722348 C -7.381638,94.653096 -7.381638,72.390889 -7.381638,67.783519 z "
         style="fill:#9ec5e2;fill-opacity:1;fill-rule:evenodd;stroke:none;stroke-width:1;stroke-linecap:butt;stroke-linejoin:miter;stroke-miterlimit:4;stroke-dasharray:none;stroke-dashoffset:0;stroke-opacity:1" />
      <path
         sodipodi:nodetypes="ccccc"
         id="path3741"
         d="M -7.2005336,67.770746 C 11.459459,71.101435 76.636995,73.532673 119.56265,57.023477 C 119.56265,59.326464 119.56265,83.891655 119.56265,86.962302 C 74.37622,104.34099 11.821284,101.10485 -7.2005336,97.709573 C -7.2005336,94.640321 -7.2005336,72.378117 -7.2005336,67.770746 z "
         style="fill:url(#linearGradient1698);fill-opacity:1;fill-rule:evenodd;stroke:none;stroke-width:1;stroke-linecap:butt;stroke-linejoin:miter;stroke-miterlimit:4;stroke-dasharray:none;stroke-dashoffset:0;stroke-opacity:1" />
      <path
         sodipodi:nodetypes="cc"
         id="path3743"
         d="M 35.2258,69.320241 L 35.2258,100.79439"
         style="fill:none;fill-opacity:0.75;fill-rule:evenodd;stroke:#000000;stroke-width:1.98792374;stroke-linecap:butt;stroke-linejoin:miter;stroke-miterlimit:4;stroke-dasharray:none;stroke-opacity:1" />
      <path
         sodipodi:nodetypes="cc"
         id="path3745"
         d="M -6.7610792,67.784915 L -6.7610792,99.25907"
         style="fill:none;fill-opacity:0.75;fill-rule:evenodd;stroke:#000000;stroke-width:2.41759467;stroke-linecap:butt;stroke-linejoin:miter;stroke-miterlimit:4;stroke-dasharray:none;stroke-opacity:1" />
      <path
         sodipodi:nodetypes="cc"
         id="path3747"
         d="M 81.846776,65.9591 L 81.846776,97.433248"
         style="fill:none;fill-opacity:0.75;fill-rule:evenodd;stroke:#000000;stroke-width:1.98792374;stroke-linecap:butt;stroke-linejoin:miter;stroke-miterlimit:4;stroke-dasharray:none;stroke-opacity:1" />
      <path
         sodipodi:nodetypes="cc"
         id="path3749"
         d="M 118.85212,57.037646 L 118.85212,88.511793"
         style="fill:none;fill-opacity:0.75;fill-rule:evenodd;stroke:#000000;stroke-width:1.98792374;stroke-linecap:butt;stroke-linejoin:miter;stroke-miterlimit:4;stroke-dasharray:none;stroke-opacity:1" />
      <g
         inkscape:export-ydpi="90"
         inkscape:export-xdpi="90"
         transform="matrix(0.998139,0,0,0.998139,-73.42526,-21.41346)"
         id="g3753">
        <path
           style="fill:none;fill-opacity:1;fill-rule:evenodd;stroke:#000000;stroke-width:3.00559068;stroke-linecap:round;stroke-linejoin:round;stroke-miterlimit:4;stroke-dasharray:none;stroke-dashoffset:0;stroke-opacity:1"
           d="M 153.09429,111.92225 L 90.34279,111.92225 C 84.41703,111.92225 79.6465,107.15172 79.6465,101.22598 L 79.6465,57.19627 C 79.6465,51.27053 85.8432,46.5 91.76896,46.5 L 168.78217,46.5 C 174.70791,46.5 179.47844,51.27053 179.47844,57.19627 L 179.47844,101.22598 C 179.47844,107.15172 174.70791,111.92225 168.78217,111.92225 L 168.91573,112.14386 C 168.91573,124.74953 138.6621,139.69628 148.02631,130.15196 C 157.39055,120.60767 153.09429,111.92225 153.09429,111.92225 z "
           id="path3755"
           sodipodi:nodetypes="ccccccccc"
           inkscape:export-filename="/home/sak/wip/gsubtitles/path3001.png"
           inkscape:export-xdpi="90"
           inkscape:export-ydpi="90" />
        <g
           id="g3757">
          <path
             inkscape:export-ydpi="90"
             inkscape:export-xdpi="90"
             inkscape:export-filename="/home/sak/wip/gsubtitles/path3001.png"
             sodipodi:nodetypes="ccccccccc"
             id="path3759"
             d="M 153.09429,111.92225 L 90.34279,111.92225 C 84.41703,111.92225 79.6465,107.15172 79.6465,101.22598 L 79.6465,57.19627 C 79.6465,51.27053 85.8432,46.5 91.76896,46.5 L 168.78217,46.5 C 174.70791,46.5 179.47844,51.27053 179.47844,57.19627 L 179.47844,101.22598 C 179.47844,107.15172 174.70791,111.92225 168.78217,111.92225 L 168.91573,112.14386 C 168.91573,124.74953 138.6621,139.69628 148.02631,130.15196 C 157.39055,120.60767 153.09429,111.92225 153.09429,111.92225 z "
             style="fill:url(#radialGradient1700);fill-opacity:1;fill-rule:evenodd;stroke:none;stroke-width:1;stroke-linecap:round;stroke-linejoin:round;stroke-miterlimit:4;stroke-dasharray:none;stroke-dashoffset:0;stroke-opacity:1" />
          <g
             inkscape:export-ydpi="90"
             inkscape:export-xdpi="90"
             inkscape:export-filename="/home/sak/wip/gsubtitles/path3001.png"
             transform="matrix(1.520119,0,0,1.520119,-350.9229,-260.4665)"
             id="g3761">
            <text
               xml:space="preserve"
               style="font-size:14px;font-style:normal;font-variant:normal;font-weight:bold;font-stretch:normal;text-align:start;line-height:125%;writing-mode:lr-tb;text-anchor:start;fill:#000000;fill-opacity:1;stroke:none;stroke-width:1px;stroke-linecap:butt;stroke-linejoin:miter;stroke-opacity:1;font-family:Bitstream Vera Sans"
               x="286.93903"
               y="222"
               id="text3763"
               sodipodi:linespacing="125%"><tspan
                 sodipodi:role="line"
                 id="tspan3765"
                 x="286.93903"
                 y="222"
                 style="font-size:14px;font-style:normal;font-variant:normal;font-weight:bold;font-stretch:normal;text-align:start;line-height:125%;writing-mode:lr-tb;text-anchor:start;font-family:Bitstream Vera Sans">GNOME</tspan></text>
            <text
               xml:space="preserve"
               style="font-size:13.5px;font-style:normal;font-variant:normal;font-weight:normal;font-stretch:normal;text-align:start;line-height:125%;writing-mode:lr-tb;text-anchor:start;fill:#000000;fill-opacity:1;stroke:none;stroke-width:1px;stroke-linecap:butt;stroke-linejoin:miter;stroke-opacity:1;font-family:Bitstream Vera Sans"
               x="287.24493"
               y="234.5"
               id="text3767"
               sodipodi:linespacing="125%"><tspan
                 sodipodi:role="line"
                 id="tspan3769"
                 x="287.24493"
                 y="234.5">subtitles</tspan></text>
          </g>
          <path
             inkscape:export-ydpi="90"
             inkscape:export-xdpi="90"
             sodipodi:nodetypes="cccczccc"
             id="path3771"
             d="M 90.57443,51.26972 L 168.5505,51.26972 C 171.60413,51.26972 174.06247,53.72805 174.06247,56.78168 L 174.06247,65.75776 C 174.06247,68.81138 154.4224,72.58072 142.45959,73.26972 C 130.49677,73.95871 85.06247,68.81138 85.06247,65.75776 L 85.06247,56.78168 C 85.06247,53.72805 87.5208,51.26972 90.57443,51.26972 z "
             style="fill:url(#linearGradient1702);fill-opacity:1;fill-rule:evenodd;stroke:none;stroke-width:1;stroke-linecap:round;stroke-linejoin:round;stroke-miterlimit:4;stroke-dashoffset:0;stroke-opacity:1" />
        </g>
      </g>
    </g>
  </g>
</svg>
